<svg width="226" height="37" viewBox="0 0 226 37" fill="none" xmlns="http://www.w3.org/2000/svg">
<path d="M100.29 34.8649L100.145 35.8543L100.29 34.8649ZM224.844 14.051C225.328 14.3167 225.506 14.9246 225.24 15.4088L220.91 23.2989C220.644 23.783 220.037 23.9601 219.552 23.6944C219.068 23.4288 218.891 22.8209 219.157 22.3367L223.005 15.3233L215.992 11.4746C215.508 11.2089 215.331 10.601 215.596 10.1169C215.862 9.63269 216.47 9.45558 216.954 9.72128L224.844 14.051ZM0.658862 1.00003C1.11459 0.109908 1.11468 0.109956 1.11497 0.110103C1.11533 0.11029 1.11582 0.110536 1.11655 0.11091C1.118 0.111653 1.12025 0.112805 1.1233 0.114359C1.1294 0.117474 1.13868 0.122208 1.15111 0.128543C1.17598 0.141213 1.21347 0.160279 1.26336 0.185564C1.36314 0.236132 1.51253 0.31158 1.70973 0.410466C2.10413 0.608239 2.6898 0.899767 3.45251 1.27359C4.97797 2.02124 7.21145 3.09799 10.0392 4.41214C15.695 7.04061 23.7262 10.6178 33.2227 14.4107C52.228 22.0012 77.0521 30.4347 100.436 33.8756L100.145 35.8543C76.5345 32.3801 51.5428 23.8812 32.4809 16.268C22.9439 12.459 14.8785 8.86657 9.19629 6.22585C6.35499 4.90539 4.10904 3.82266 2.57231 3.06948C1.80393 2.69289 1.21283 2.39866 0.81323 2.19828C0.613429 2.09809 0.461502 2.02137 0.359227 1.96953C0.308089 1.94361 0.269364 1.92392 0.243274 1.91063C0.230229 1.90398 0.220342 1.89894 0.213642 1.89552C0.210292 1.89381 0.207739 1.8925 0.205986 1.8916C0.205109 1.89116 0.204395 1.89079 0.203957 1.89057C0.203443 1.8903 0.20313 1.89014 0.658862 1.00003ZM100.436 33.8756C109.543 35.2158 121.812 34.6634 135.154 33.0521C148.478 31.4429 162.799 28.7873 175.981 25.9587C189.161 23.1305 201.189 20.1322 209.922 17.8407C214.288 16.695 217.83 15.7263 220.28 15.0442C221.505 14.7031 222.457 14.4337 223.102 14.2497C223.424 14.1577 223.67 14.0871 223.835 14.0395C223.918 14.0157 223.98 13.9977 224.022 13.9856C224.042 13.9796 224.058 13.9751 224.068 13.9721C224.073 13.9705 224.077 13.9694 224.08 13.9687C224.081 13.9683 224.082 13.968 224.083 13.9679C224.083 13.9677 224.083 13.9676 224.363 14.9277C224.643 15.8878 224.643 15.8879 224.642 15.8881C224.641 15.8883 224.64 15.8886 224.639 15.889C224.636 15.8898 224.632 15.891 224.626 15.8926C224.616 15.8957 224.6 15.9004 224.578 15.9065C224.536 15.9188 224.473 15.9371 224.389 15.9612C224.222 16.0093 223.975 16.0805 223.65 16.173C223.001 16.3581 222.046 16.6286 220.817 16.9709C218.359 17.6553 214.807 18.6267 210.43 19.7752C201.676 22.072 189.618 25.078 176.401 27.9142C163.186 30.7499 148.8 33.4186 135.394 35.0377C122.006 36.6545 109.523 37.2343 100.145 35.8543L100.436 33.8756Z" fill="white"/>
</svg>
