<svg width="36" height="107" viewBox="0 0 36 107" fill="none" xmlns="http://www.w3.org/2000/svg">
<path d="M1.50006 48.9996L2.4987 48.9475L1.50006 48.9996ZM35.9519 102.193C36.1212 102.719 35.8323 103.283 35.3066 103.452L26.7398 106.211C26.2141 106.38 25.6507 106.091 25.4814 105.565C25.3122 105.04 25.6011 104.476 26.1268 104.307L33.7417 101.855L31.2895 94.2398C31.1202 93.7141 31.4091 93.1507 31.9348 92.9814C32.4605 92.8121 33.0239 93.101 33.1932 93.6267L35.9519 102.193ZM35 1.50059C35.0018 2.50059 35.0023 2.50059 35.0027 2.50059C35.0026 2.50059 35.0029 2.50059 35.0028 2.50059C35.0025 2.50059 35.0018 2.50059 35.0005 2.5006C34.9978 2.50062 34.9931 2.50066 34.9862 2.50075C34.9725 2.50091 34.9503 2.50126 34.92 2.50196C34.8593 2.50336 34.766 2.50617 34.6424 2.51184C34.3951 2.52317 34.0267 2.54588 33.5551 2.59135C32.6115 2.68234 31.2574 2.86423 29.6364 3.22749C26.3912 3.95475 22.0983 5.40393 17.8871 8.28694C9.53171 14.0071 1.27691 25.5246 2.4987 48.9475L0.501419 49.0517C-0.751137 25.0391 7.74405 12.8071 16.7573 6.63663C21.2304 3.57432 25.7764 2.04291 29.199 1.2759C30.912 0.892033 32.349 0.698368 33.3631 0.600587C33.8704 0.551676 34.2724 0.526697 34.5509 0.513936C34.6901 0.507555 34.7986 0.504226 34.8739 0.502489C34.9115 0.501621 34.9409 0.501151 34.9617 0.500896C34.9722 0.500768 34.9804 0.500695 34.9865 0.500652C34.9896 0.500631 34.9921 0.500617 34.9941 0.500609C34.995 0.500605 34.9961 0.500601 34.9966 0.5006C34.9975 0.500597 34.9983 0.500596 35 1.50059ZM2.4987 48.9475C3.45671 67.3133 11.6947 80.4754 19.711 89.062C23.7205 93.3568 27.6702 96.5014 30.6144 98.5704C32.0859 99.6044 33.3046 100.369 34.1516 100.872C34.575 101.124 34.9054 101.311 35.1279 101.433C35.2391 101.495 35.3234 101.54 35.3787 101.569C35.4064 101.584 35.4269 101.595 35.4399 101.602C35.4464 101.605 35.4511 101.607 35.4538 101.609C35.4552 101.61 35.4561 101.61 35.4565 101.61C35.4567 101.61 35.4567 101.61 35.4568 101.61C35.4567 101.61 35.4564 101.61 35.0001 102.5C34.5437 103.39 34.5432 103.39 34.5426 103.389C34.5422 103.389 34.5415 103.389 34.5407 103.388C34.5392 103.387 34.5373 103.386 34.5348 103.385C34.5299 103.383 34.5231 103.379 34.5145 103.375C34.4971 103.366 34.4723 103.353 34.4402 103.336C34.3761 103.301 34.2829 103.251 34.1626 103.185C33.9219 103.052 33.5725 102.855 33.1293 102.591C32.2432 102.064 30.9815 101.273 29.4645 100.207C26.4316 98.0754 22.3713 94.8423 18.2491 90.4269C10.0021 81.5931 1.49007 68.005 0.501419 49.0517L2.4987 48.9475Z" fill="white"/>
</svg>
