<svg width="106" height="96" viewBox="0 0 106 96" fill="none" xmlns="http://www.w3.org/2000/svg">
<g filter="url(#filter0_d_1_160)">
<path fill-rule="evenodd" clip-rule="evenodd" d="M35.5128 57.1147C34.7146 55.8021 35.2758 54.1006 36.6257 53.3674C38.0412 52.5986 39.2025 51.7919 40.1096 50.9471C42.4437 48.7735 39.8892 46.0533 37.3269 44.154C37.0466 43.9462 36.7773 43.7221 36.5192 43.4816C34.933 42.0036 34.14 40.2929 34.14 38.3492C34.14 36.2842 34.9097 34.543 36.4492 33.1258C37.9887 31.7086 39.9248 31 42.2574 31C44.8699 31 47.1325 31.9212 49.0452 33.7636C50.9579 35.6059 51.9143 37.8431 51.9143 40.4751C51.9143 47.8347 47.4966 53.6992 38.661 58.0686C37.5285 58.6287 36.1692 58.1942 35.5128 57.1147ZM55.6548 57.1411C54.8312 55.8214 55.3931 54.0915 56.7618 53.3519C58.1863 52.5821 59.3542 51.7743 60.2656 50.9285C62.5951 48.7664 60.0544 46.0664 57.4803 44.2022C57.1749 43.981 56.8831 43.7408 56.6049 43.4816C55.0187 42.0036 54.2257 40.2929 54.2257 38.3492C54.2257 36.2842 55.0071 34.543 56.5699 33.1258C58.1328 31.7086 60.0805 31 62.4131 31C65.0256 31 67.2765 31.9212 69.1659 33.7636C71.0553 35.6059 72 37.8431 72 40.4751C72 47.8365 67.6004 53.702 58.8012 58.0718C57.6747 58.6312 56.3207 58.2082 55.6548 57.1411Z" fill="url(#paint0_linear_1_160)"/>
</g>
<defs>
<filter id="filter0_d_1_160" x="0.139954" y="0" width="105.86" height="95.3191" filterUnits="userSpaceOnUse" color-interpolation-filters="sRGB">
<feFlood flood-opacity="0" result="BackgroundImageFix"/>
<feColorMatrix in="SourceAlpha" type="matrix" values="0 0 0 0 0 0 0 0 0 0 0 0 0 0 0 0 0 0 127 0" result="hardAlpha"/>
<feOffset dy="3"/>
<feGaussianBlur stdDeviation="17"/>
<feComposite in2="hardAlpha" operator="out"/>
<feColorMatrix type="matrix" values="0 0 0 0 0.613889 0 0 0 0 0.361111 0 0 0 0 0.866667 0 0 0 0.4 0"/>
<feBlend mode="normal" in2="BackgroundImageFix" result="effect1_dropShadow_1_160"/>
<feBlend mode="normal" in="SourceGraphic" in2="effect1_dropShadow_1_160" result="shape"/>
</filter>
<linearGradient id="paint0_linear_1_160" x1="44.925" y1="82.4706" x2="13.8581" y2="73.6663" gradientUnits="userSpaceOnUse">
<stop stop-color="#9290F5"/>
<stop offset="1" stop-color="#3736BE"/>
</linearGradient>
</defs>
</svg>
