<svg width="26" height="47" viewBox="0 0 26 47" fill="none" xmlns="http://www.w3.org/2000/svg">
<path d="M21.4478 0.999985H4.54428C2.58683 0.999985 1 2.66413 1 4.71696V42.4585C1 44.5113 2.58683 46.1755 4.54428 46.1755H21.4478C23.4052 46.1755 24.992 44.5113 24.992 42.4585V4.71696C24.992 2.66413 23.4052 0.999985 21.4478 0.999985Z" stroke="#14161D"/>
<path fill-rule="evenodd" clip-rule="evenodd" d="M7.71405 20.5865C7.71405 20.3242 7.92876 20.1115 8.19363 20.1115H22.5809C22.8458 20.1115 23.0605 20.3242 23.0605 20.5865C23.0605 20.8488 22.8458 21.0615 22.5809 21.0615H8.19363C7.92876 21.0615 7.71405 20.8488 7.71405 20.5865ZM8.6732 22.4865C8.6732 22.2242 8.88791 22.0115 9.15278 22.0115H16.826C17.0909 22.0115 17.3056 22.2242 17.3056 22.4865C17.3056 22.7489 17.0909 22.9615 16.826 22.9615H9.15278C8.88791 22.9615 8.6732 22.7489 8.6732 22.4865ZM8.19363 23.9116C7.92876 23.9116 7.71405 24.1242 7.71405 24.3865C7.71405 24.6489 7.92876 24.8615 8.19363 24.8615H21.6217C21.8866 24.8615 22.1013 24.6489 22.1013 24.3865C22.1013 24.1242 21.8866 23.9116 21.6217 23.9116H8.19363ZM8.6732 26.2865C8.6732 26.0242 8.88791 25.8115 9.15278 25.8115H14.9077C15.1726 25.8115 15.3873 26.0242 15.3873 26.2865C15.3873 26.5489 15.1726 26.7615 14.9077 26.7615H9.15278C8.88791 26.7615 8.6732 26.5489 8.6732 26.2865ZM9.15278 27.7115C8.88791 27.7115 8.6732 27.9242 8.6732 28.1866C8.6732 28.4489 8.88791 28.6615 9.15278 28.6615H14.9077C15.1726 28.6615 15.3873 28.4489 15.3873 28.1866C15.3873 27.9242 15.1726 27.7115 14.9077 27.7115H9.15278Z" fill="#E4E8F4"/>
<path d="M3.81622 24.3502C3.65576 24.3502 3.52606 24.4787 3.52606 24.6376C3.52606 24.7965 3.65576 24.925 3.81622 24.925C4.15367 24.925 4.41974 25.0328 4.62952 25.2544C5.24203 25.9024 5.15964 27.2624 5.1582 27.296V30.9602C5.1582 31.883 5.41703 32.5949 5.92682 33.0742C6.53875 33.6502 7.31116 33.691 7.51656 33.691C7.545 33.691 7.56241 33.6898 7.56706 33.6898C7.72724 33.6821 7.85025 33.5467 7.84186 33.3878C7.83342 33.2286 7.69444 33.1061 7.53689 33.1156C7.52932 33.1191 6.84487 33.1455 6.32635 32.6575C5.93578 32.2905 5.73849 31.7192 5.73849 30.9602L5.73791 27.3152C5.74256 27.2494 5.83891 25.6932 5.05432 24.8629C4.97337 24.7773 4.88575 24.7017 4.79286 24.6379C4.88575 24.5735 4.97337 24.4988 5.05432 24.4126C5.83891 23.5812 5.74256 22.0258 5.73849 21.9795V18.3153C5.73849 17.5592 5.93463 16.9899 6.3217 16.6223C6.83441 16.1355 7.52817 16.1585 7.53833 16.1596C7.69822 16.1694 7.83342 16.0458 7.84186 15.8874C7.84967 15.7288 7.72695 15.594 7.56706 15.5854C7.52702 15.586 6.62407 15.5452 5.92739 16.2013C5.41703 16.6812 5.15878 17.3928 5.15878 18.3153L5.15935 21.9988C5.18544 22.3773 5.14079 23.4791 4.63096 24.0197C4.42032 24.2421 4.15425 24.3502 3.81622 24.3502Z" fill="#3980FF"/>
<path d="M6.47211 1.00002H19.5201C19.3877 1.96992 18.5923 2.71554 17.6309 2.71554H8.36126C7.39984 2.71554 6.60444 1.96992 6.47211 1.00002Z" fill="#14161D" stroke="#14161D"/>
</svg>
