<svg width="55" height="53" viewBox="0 0 55 53" fill="none" xmlns="http://www.w3.org/2000/svg">
<mask id="path-1-outside-1_11_719" maskUnits="userSpaceOnUse" x="5.01562" y="4.79688" width="45" height="43" fill="black">
<rect fill="white" x="5.01562" y="4.79688" width="45" height="43"/>
<path d="M27.5 5.79688C15.6533 5.79688 6.01562 15.0841 6.01562 26.5C6.01562 37.9159 15.6533 47.2031 27.5 47.2031C39.3467 47.2031 48.9844 37.9159 48.9844 26.5C48.9844 15.0841 39.3467 5.79688 27.5 5.79688ZM46.9275 22.1463L46.158 22.9218C46.071 23.0092 45.9699 23.0084 45.9152 23.0009C45.8612 22.9926 45.7631 22.9626 45.7091 22.8532L45.043 21.5105C44.9546 21.334 44.8377 21.1737 44.6938 21.0336L43.5526 19.9292C43.2154 19.6024 42.7478 19.4151 42.269 19.4151H41.9813C40.9824 19.4151 40.1702 20.1978 40.1702 21.1632C40.1702 21.2484 40.1275 21.3293 40.0563 21.3791L39.4343 21.8134C38.9555 22.1477 38.3538 22.2514 37.7836 22.0994C37.2141 21.947 36.754 21.5585 36.5225 21.0336L35.7687 19.3226C35.7028 19.1725 35.6151 19.0327 35.5124 18.9111L33.2023 16.1416C33.0629 15.9741 32.8951 15.8347 32.7055 15.7286L29.5973 13.9743C29.144 13.7194 28.5992 13.6652 28.101 13.8281L25.3 14.7444L22.3417 15.6011C21.9513 15.7134 21.6081 15.9528 21.3773 16.2734L21.1645 16.5662C21.0971 16.6597 21.0012 16.6774 20.9502 16.6795C20.9015 16.6763 20.8026 16.6723 20.7262 16.5842L19.8472 15.5686C19.785 15.4971 19.7663 15.3982 19.7993 15.3098L20.9158 12.2807C20.9435 12.2045 21.0057 12.1453 21.0851 12.1186L25.8597 10.5113C26.2172 10.3907 26.5221 10.1694 26.7402 9.87186L28.6229 7.30789C37.5697 7.78879 44.9562 13.9767 46.9275 22.1463ZM14.0891 12.2794L14.5691 13.0533C15.0554 13.8375 15.0149 14.826 14.4672 15.5711L12.7707 17.881L10.8247 20.7206C10.8038 20.7505 10.7775 20.7758 10.7453 20.796L10.0305 21.2448C9.21445 21.7571 8.96493 22.7907 9.46248 23.5984L9.76295 24.0858C9.83339 24.2009 9.79517 24.302 9.76595 24.3522C9.73748 24.402 9.66779 24.4865 9.52842 24.488L7.657 24.5101C8.17459 19.6821 10.5534 15.3785 14.0891 12.2794ZM7.75263 29.213L9.6543 28.6272C9.74572 28.5998 9.84688 28.6185 9.92031 28.6803L12.9018 31.1851C13.1169 31.366 13.3769 31.4967 13.6541 31.5635L16.294 32.1996C16.4019 32.2256 16.4536 32.2989 16.4746 32.3404C16.4963 32.3816 16.5248 32.4654 16.4806 32.5636L16.1351 33.3297C15.9433 33.7546 15.9343 34.2258 16.1074 34.6561L16.6184 35.9248C16.6701 36.0526 16.6132 36.1959 16.4866 36.2584L15.2907 36.8461C14.7392 37.1173 14.3727 37.6339 14.3113 38.2282L14.0568 40.6909C10.7167 37.7502 8.41816 33.7317 7.75263 29.213ZM27.5 45.7243C22.9899 45.7243 18.8262 44.2729 15.4811 41.8319L15.8384 38.3748C15.8474 38.2838 15.9036 38.2051 15.9875 38.1636L17.1834 37.5758C18.0137 37.1678 18.3861 36.2284 18.0496 35.3901L17.5379 34.1207C17.5116 34.0554 17.5131 33.9831 17.5423 33.9189L17.8878 33.1535C18.1006 32.682 18.0871 32.1473 17.8511 31.6863C17.615 31.2252 17.1834 30.8895 16.6656 30.7649L14.0258 30.1288C13.9838 30.1186 13.9441 30.0988 13.9112 30.071L10.9289 27.5654C10.4553 27.1672 9.78993 27.0354 9.18748 27.2185L7.59373 27.7092C7.56779 27.3089 7.55022 26.9065 7.55022 26.5C7.55022 26.3291 7.55898 26.1602 7.56362 25.9903L9.54715 25.9668C10.2021 25.9592 10.7843 25.6259 11.105 25.0757C11.4249 24.5251 11.4167 23.8728 11.0817 23.3305L10.782 22.8435C10.7056 22.72 10.7438 22.5618 10.8682 22.4839L11.5838 22.0347C11.7936 21.9026 11.9697 21.734 12.1053 21.5347L14.037 18.7161L15.72 16.4261C16.6184 15.2033 16.6836 13.5818 15.8864 12.2948L15.2815 11.3193C18.4788 8.9242 22.4474 7.44554 26.7638 7.29368L25.4873 9.01838C25.4544 9.06279 25.4064 9.09745 25.3532 9.1155L20.5786 10.7228C20.0578 10.8979 19.6539 11.2857 19.4696 11.7857L18.3531 14.8144C18.1396 15.3935 18.2609 16.0459 18.6693 16.5167L19.5483 17.5316C19.9124 17.9525 20.4504 18.1782 21.0169 18.1569C21.5849 18.133 22.0982 17.8619 22.4226 17.4128L22.6362 17.1189C22.6707 17.0705 22.7224 17.0348 22.7823 17.0174L25.7676 16.1524L28.594 15.2285C28.6674 15.2022 28.7529 15.2119 28.8225 15.2505L31.9322 17.0055C31.9599 17.0211 31.9847 17.042 32.0064 17.0676L34.3562 19.9003L35.1108 21.612C35.5259 22.5535 36.3502 23.2503 37.373 23.5244C38.3965 23.7977 39.4756 23.6103 40.335 23.0106L40.957 22.5759C41.4253 22.2488 41.7048 21.7206 41.7048 21.1599C41.7048 21.0134 41.8292 20.8939 41.9813 20.8939H42.269C42.3424 20.8939 42.4136 20.9224 42.4646 20.9722L43.605 22.0759C43.6275 22.0976 43.6455 22.1228 43.659 22.1495L44.3251 23.4915C44.5821 24.0085 45.0864 24.371 45.6739 24.4612C45.7683 24.4757 45.8635 24.4829 45.9586 24.4829C46.4487 24.4829 46.923 24.2908 47.2669 23.9439L47.268 23.9428C47.384 24.7802 47.4498 25.6326 47.4498 26.5C47.4498 37.1003 38.5007 45.7243 27.5 45.7243Z"/>
</mask>
<path d="M27.5 5.79688C15.6533 5.79688 6.01562 15.0841 6.01562 26.5C6.01562 37.9159 15.6533 47.2031 27.5 47.2031C39.3467 47.2031 48.9844 37.9159 48.9844 26.5C48.9844 15.0841 39.3467 5.79688 27.5 5.79688ZM46.9275 22.1463L46.158 22.9218C46.071 23.0092 45.9699 23.0084 45.9152 23.0009C45.8612 22.9926 45.7631 22.9626 45.7091 22.8532L45.043 21.5105C44.9546 21.334 44.8377 21.1737 44.6938 21.0336L43.5526 19.9292C43.2154 19.6024 42.7478 19.4151 42.269 19.4151H41.9813C40.9824 19.4151 40.1702 20.1978 40.1702 21.1632C40.1702 21.2484 40.1275 21.3293 40.0563 21.3791L39.4343 21.8134C38.9555 22.1477 38.3538 22.2514 37.7836 22.0994C37.2141 21.947 36.754 21.5585 36.5225 21.0336L35.7687 19.3226C35.7028 19.1725 35.6151 19.0327 35.5124 18.9111L33.2023 16.1416C33.0629 15.9741 32.8951 15.8347 32.7055 15.7286L29.5973 13.9743C29.144 13.7194 28.5992 13.6652 28.101 13.8281L25.3 14.7444L22.3417 15.6011C21.9513 15.7134 21.6081 15.9528 21.3773 16.2734L21.1645 16.5662C21.0971 16.6597 21.0012 16.6774 20.9502 16.6795C20.9015 16.6763 20.8026 16.6723 20.7262 16.5842L19.8472 15.5686C19.785 15.4971 19.7663 15.3982 19.7993 15.3098L20.9158 12.2807C20.9435 12.2045 21.0057 12.1453 21.0851 12.1186L25.8597 10.5113C26.2172 10.3907 26.5221 10.1694 26.7402 9.87186L28.6229 7.30789C37.5697 7.78879 44.9562 13.9767 46.9275 22.1463ZM14.0891 12.2794L14.5691 13.0533C15.0554 13.8375 15.0149 14.826 14.4672 15.5711L12.7707 17.881L10.8247 20.7206C10.8038 20.7505 10.7775 20.7758 10.7453 20.796L10.0305 21.2448C9.21445 21.7571 8.96493 22.7907 9.46248 23.5984L9.76295 24.0858C9.83339 24.2009 9.79517 24.302 9.76595 24.3522C9.73748 24.402 9.66779 24.4865 9.52842 24.488L7.657 24.5101C8.17459 19.6821 10.5534 15.3785 14.0891 12.2794ZM7.75263 29.213L9.6543 28.6272C9.74572 28.5998 9.84688 28.6185 9.92031 28.6803L12.9018 31.1851C13.1169 31.366 13.3769 31.4967 13.6541 31.5635L16.294 32.1996C16.4019 32.2256 16.4536 32.2989 16.4746 32.3404C16.4963 32.3816 16.5248 32.4654 16.4806 32.5636L16.1351 33.3297C15.9433 33.7546 15.9343 34.2258 16.1074 34.6561L16.6184 35.9248C16.6701 36.0526 16.6132 36.1959 16.4866 36.2584L15.2907 36.8461C14.7392 37.1173 14.3727 37.6339 14.3113 38.2282L14.0568 40.6909C10.7167 37.7502 8.41816 33.7317 7.75263 29.213ZM27.5 45.7243C22.9899 45.7243 18.8262 44.2729 15.4811 41.8319L15.8384 38.3748C15.8474 38.2838 15.9036 38.2051 15.9875 38.1636L17.1834 37.5758C18.0137 37.1678 18.3861 36.2284 18.0496 35.3901L17.5379 34.1207C17.5116 34.0554 17.5131 33.9831 17.5423 33.9189L17.8878 33.1535C18.1006 32.682 18.0871 32.1473 17.8511 31.6863C17.615 31.2252 17.1834 30.8895 16.6656 30.7649L14.0258 30.1288C13.9838 30.1186 13.9441 30.0988 13.9112 30.071L10.9289 27.5654C10.4553 27.1672 9.78993 27.0354 9.18748 27.2185L7.59373 27.7092C7.56779 27.3089 7.55022 26.9065 7.55022 26.5C7.55022 26.3291 7.55898 26.1602 7.56362 25.9903L9.54715 25.9668C10.2021 25.9592 10.7843 25.6259 11.105 25.0757C11.4249 24.5251 11.4167 23.8728 11.0817 23.3305L10.782 22.8435C10.7056 22.72 10.7438 22.5618 10.8682 22.4839L11.5838 22.0347C11.7936 21.9026 11.9697 21.734 12.1053 21.5347L14.037 18.7161L15.72 16.4261C16.6184 15.2033 16.6836 13.5818 15.8864 12.2948L15.2815 11.3193C18.4788 8.9242 22.4474 7.44554 26.7638 7.29368L25.4873 9.01838C25.4544 9.06279 25.4064 9.09745 25.3532 9.1155L20.5786 10.7228C20.0578 10.8979 19.6539 11.2857 19.4696 11.7857L18.3531 14.8144C18.1396 15.3935 18.2609 16.0459 18.6693 16.5167L19.5483 17.5316C19.9124 17.9525 20.4504 18.1782 21.0169 18.1569C21.5849 18.133 22.0982 17.8619 22.4226 17.4128L22.6362 17.1189C22.6707 17.0705 22.7224 17.0348 22.7823 17.0174L25.7676 16.1524L28.594 15.2285C28.6674 15.2022 28.7529 15.2119 28.8225 15.2505L31.9322 17.0055C31.9599 17.0211 31.9847 17.042 32.0064 17.0676L34.3562 19.9003L35.1108 21.612C35.5259 22.5535 36.3502 23.2503 37.373 23.5244C38.3965 23.7977 39.4756 23.6103 40.335 23.0106L40.957 22.5759C41.4253 22.2488 41.7048 21.7206 41.7048 21.1599C41.7048 21.0134 41.8292 20.8939 41.9813 20.8939H42.269C42.3424 20.8939 42.4136 20.9224 42.4646 20.9722L43.605 22.0759C43.6275 22.0976 43.6455 22.1228 43.659 22.1495L44.3251 23.4915C44.5821 24.0085 45.0864 24.371 45.6739 24.4612C45.7683 24.4757 45.8635 24.4829 45.9586 24.4829C46.4487 24.4829 46.923 24.2908 47.2669 23.9439L47.268 23.9428C47.384 24.7802 47.4498 25.6326 47.4498 26.5C47.4498 37.1003 38.5007 45.7243 27.5 45.7243Z" fill="#82868C"/>
<path d="M27.5 5.79688C15.6533 5.79688 6.01562 15.0841 6.01562 26.5C6.01562 37.9159 15.6533 47.2031 27.5 47.2031C39.3467 47.2031 48.9844 37.9159 48.9844 26.5C48.9844 15.0841 39.3467 5.79688 27.5 5.79688ZM46.9275 22.1463L46.158 22.9218C46.071 23.0092 45.9699 23.0084 45.9152 23.0009C45.8612 22.9926 45.7631 22.9626 45.7091 22.8532L45.043 21.5105C44.9546 21.334 44.8377 21.1737 44.6938 21.0336L43.5526 19.9292C43.2154 19.6024 42.7478 19.4151 42.269 19.4151H41.9813C40.9824 19.4151 40.1702 20.1978 40.1702 21.1632C40.1702 21.2484 40.1275 21.3293 40.0563 21.3791L39.4343 21.8134C38.9555 22.1477 38.3538 22.2514 37.7836 22.0994C37.2141 21.947 36.754 21.5585 36.5225 21.0336L35.7687 19.3226C35.7028 19.1725 35.6151 19.0327 35.5124 18.9111L33.2023 16.1416C33.0629 15.9741 32.8951 15.8347 32.7055 15.7286L29.5973 13.9743C29.144 13.7194 28.5992 13.6652 28.101 13.8281L25.3 14.7444L22.3417 15.6011C21.9513 15.7134 21.6081 15.9528 21.3773 16.2734L21.1645 16.5662C21.0971 16.6597 21.0012 16.6774 20.9502 16.6795C20.9015 16.6763 20.8026 16.6723 20.7262 16.5842L19.8472 15.5686C19.785 15.4971 19.7663 15.3982 19.7993 15.3098L20.9158 12.2807C20.9435 12.2045 21.0057 12.1453 21.0851 12.1186L25.8597 10.5113C26.2172 10.3907 26.5221 10.1694 26.7402 9.87186L28.6229 7.30789C37.5697 7.78879 44.9562 13.9767 46.9275 22.1463ZM14.0891 12.2794L14.5691 13.0533C15.0554 13.8375 15.0149 14.826 14.4672 15.5711L12.7707 17.881L10.8247 20.7206C10.8038 20.7505 10.7775 20.7758 10.7453 20.796L10.0305 21.2448C9.21445 21.7571 8.96493 22.7907 9.46248 23.5984L9.76295 24.0858C9.83339 24.2009 9.79517 24.302 9.76595 24.3522C9.73748 24.402 9.66779 24.4865 9.52842 24.488L7.657 24.5101C8.17459 19.6821 10.5534 15.3785 14.0891 12.2794ZM7.75263 29.213L9.6543 28.6272C9.74572 28.5998 9.84688 28.6185 9.92031 28.6803L12.9018 31.1851C13.1169 31.366 13.3769 31.4967 13.6541 31.5635L16.294 32.1996C16.4019 32.2256 16.4536 32.2989 16.4746 32.3404C16.4963 32.3816 16.5248 32.4654 16.4806 32.5636L16.1351 33.3297C15.9433 33.7546 15.9343 34.2258 16.1074 34.6561L16.6184 35.9248C16.6701 36.0526 16.6132 36.1959 16.4866 36.2584L15.2907 36.8461C14.7392 37.1173 14.3727 37.6339 14.3113 38.2282L14.0568 40.6909C10.7167 37.7502 8.41816 33.7317 7.75263 29.213ZM27.5 45.7243C22.9899 45.7243 18.8262 44.2729 15.4811 41.8319L15.8384 38.3748C15.8474 38.2838 15.9036 38.2051 15.9875 38.1636L17.1834 37.5758C18.0137 37.1678 18.3861 36.2284 18.0496 35.3901L17.5379 34.1207C17.5116 34.0554 17.5131 33.9831 17.5423 33.9189L17.8878 33.1535C18.1006 32.682 18.0871 32.1473 17.8511 31.6863C17.615 31.2252 17.1834 30.8895 16.6656 30.7649L14.0258 30.1288C13.9838 30.1186 13.9441 30.0988 13.9112 30.071L10.9289 27.5654C10.4553 27.1672 9.78993 27.0354 9.18748 27.2185L7.59373 27.7092C7.56779 27.3089 7.55022 26.9065 7.55022 26.5C7.55022 26.3291 7.55898 26.1602 7.56362 25.9903L9.54715 25.9668C10.2021 25.9592 10.7843 25.6259 11.105 25.0757C11.4249 24.5251 11.4167 23.8728 11.0817 23.3305L10.782 22.8435C10.7056 22.72 10.7438 22.5618 10.8682 22.4839L11.5838 22.0347C11.7936 21.9026 11.9697 21.734 12.1053 21.5347L14.037 18.7161L15.72 16.4261C16.6184 15.2033 16.6836 13.5818 15.8864 12.2948L15.2815 11.3193C18.4788 8.9242 22.4474 7.44554 26.7638 7.29368L25.4873 9.01838C25.4544 9.06279 25.4064 9.09745 25.3532 9.1155L20.5786 10.7228C20.0578 10.8979 19.6539 11.2857 19.4696 11.7857L18.3531 14.8144C18.1396 15.3935 18.2609 16.0459 18.6693 16.5167L19.5483 17.5316C19.9124 17.9525 20.4504 18.1782 21.0169 18.1569C21.5849 18.133 22.0982 17.8619 22.4226 17.4128L22.6362 17.1189C22.6707 17.0705 22.7224 17.0348 22.7823 17.0174L25.7676 16.1524L28.594 15.2285C28.6674 15.2022 28.7529 15.2119 28.8225 15.2505L31.9322 17.0055C31.9599 17.0211 31.9847 17.042 32.0064 17.0676L34.3562 19.9003L35.1108 21.612C35.5259 22.5535 36.3502 23.2503 37.373 23.5244C38.3965 23.7977 39.4756 23.6103 40.335 23.0106L40.957 22.5759C41.4253 22.2488 41.7048 21.7206 41.7048 21.1599C41.7048 21.0134 41.8292 20.8939 41.9813 20.8939H42.269C42.3424 20.8939 42.4136 20.9224 42.4646 20.9722L43.605 22.0759C43.6275 22.0976 43.6455 22.1228 43.659 22.1495L44.3251 23.4915C44.5821 24.0085 45.0864 24.371 45.6739 24.4612C45.7683 24.4757 45.8635 24.4829 45.9586 24.4829C46.4487 24.4829 46.923 24.2908 47.2669 23.9439L47.268 23.9428C47.384 24.7802 47.4498 25.6326 47.4498 26.5C47.4498 37.1003 38.5007 45.7243 27.5 45.7243Z" stroke="#82868C" stroke-width="0.3" mask="url(#path-1-outside-1_11_719)"/>
<path d="M36.0165 25.9746L36.0166 25.9746C36.6124 26.1563 37.0781 26.6044 37.2595 27.1762C37.4409 27.7478 37.3139 28.3671 36.921 28.8321L36.0165 25.9746ZM36.0165 25.9746L35.2287 25.7348L36.0165 25.9746ZM35.1163 25.6501L35.1165 25.6503C35.1413 25.69 35.1807 25.72 35.2286 25.7347L35.1163 25.6501ZM35.1163 25.6501L32.2289 21.0776L32.2289 21.0775M35.1163 25.6501L32.2289 21.0775M32.2289 21.0775C32.0075 20.7275 31.665 20.4566 31.2633 20.3136C31.2633 20.3136 31.2633 20.3136 31.2633 20.3136L29.4534 19.6686L32.2289 21.0775ZM27.8274 19.7968L27.8274 19.7967C28.3244 19.5235 28.9172 19.4769 29.4533 19.6686L27.8274 19.7968ZM27.8274 19.7968L27.2099 20.1369L27.2095 20.1371M27.8274 19.7968L27.2095 20.1371M27.2095 20.1371C27.1342 20.1791 27.0386 20.1707 26.9714 20.116L26.0115 19.3335L26.0115 19.3334M27.2095 20.1371L26.0115 19.3334M26.0115 19.3334C25.6276 19.0211 25.1221 18.8614 24.6179 18.9031C24.6178 18.9031 24.6177 18.9031 24.6177 18.9032L21.7346 19.1225C21.7345 19.1225 21.7345 19.1225 21.7345 19.1225C21.0811 19.1721 20.5063 19.5303 20.2002 20.0836L19.188 21.9098C19.188 21.9098 19.188 21.9098 19.188 21.9098C17.961 24.1218 18.8487 26.8894 21.1596 28.0807L23.1825 29.1244L23.1827 29.1245M26.0115 19.3334L23.1827 29.1245M23.1827 29.1245C23.2233 29.1453 23.2545 29.1783 23.2724 29.2165M23.1827 29.1245L23.2724 29.2165M25.4884 32.5891L25.4882 32.5889L24.5716 31.7195L25.4884 32.5891ZM25.4884 32.5891C25.5411 32.6387 25.5595 32.7099 25.5401 32.7741M25.4884 32.5891L25.5401 32.7741M35.5949 27.816L35.5951 27.8157C35.6523 27.7484 35.6423 27.6813 35.6308 27.6456L35.7022 27.6226L35.6308 27.6456C35.6193 27.6096 35.5878 27.546 35.4986 27.5188C35.4985 27.5188 35.4985 27.5188 35.4985 27.5187L34.7098 27.2785L34.7098 27.2785C34.2683 27.1434 33.8949 26.8622 33.6576 26.4847L35.5949 27.816ZM35.5949 27.816L33.4834 30.318L35.5949 27.816ZM23.2724 29.2165C23.2724 29.2165 23.2724 29.2166 23.2724 29.2166M23.2724 29.2165L23.2724 29.2166M23.2724 29.2166L24.1715 31.1625C24.1715 31.1625 24.1715 31.1626 24.1715 31.1626C24.2665 31.3709 24.401 31.5582 24.5715 31.7195L23.2724 29.2166ZM25.5401 32.7741C25.5401 32.7741 25.5401 32.7741 25.5401 32.7742M25.5401 32.7741L25.5401 32.7742M25.5401 32.7742L24.9765 34.6133C24.9765 34.6134 24.9764 34.6134 24.9764 34.6135C24.8513 35.0186 24.8807 35.4548 25.0572 35.8406L25.5401 32.7742ZM34.8095 31.3345L36.921 28.8321L25.0572 35.8407L26.4891 38.9826L26.4892 38.9827C26.8272 39.7229 27.483 40.2926 28.2873 40.5465L28.3098 40.475L28.2873 40.5465C28.594 40.6433 28.9123 40.6908 29.2289 40.6908C29.7434 40.6908 30.2557 40.5646 30.7117 40.3172L31.3345 39.9792L31.3346 39.9792C31.8902 39.677 32.2484 39.1332 32.2896 38.5242L32.3972 36.9487L32.3972 36.9486C32.4014 36.8854 32.4417 36.8249 32.5054 36.7937L32.5055 36.7936L33.7367 36.1874C34.3701 35.8756 34.7658 35.2603 34.7658 34.5798V31.4514C34.7658 31.4092 34.7807 31.368 34.809 31.3351L34.8095 31.3345ZM30.7702 21.9133L33.6575 26.4846L33.4833 30.318C33.213 30.6376 33.0641 31.0401 33.0641 31.4514V34.5798C33.0641 34.6488 33.0241 34.7136 32.9554 34.7473L32.9552 34.7474L31.724 35.3536C31.1354 35.6434 30.7409 36.2141 30.6989 36.8445L30.5913 38.4196C30.5871 38.4815 30.5504 38.539 30.4908 38.5714L29.8689 38.909L29.9047 38.9749L29.8689 38.909C29.5474 39.0835 29.1753 39.1199 28.8228 39.0076L28.8226 39.0075C28.4699 38.8962 28.1961 38.6578 28.05 38.3369L28.05 38.3368L26.6175 35.1941C26.6174 35.194 26.6174 35.194 26.6174 35.1939C26.5998 35.1546 26.5966 35.1112 26.6094 35.0694C26.6094 35.0693 26.6094 35.0693 26.6094 35.0693L27.1738 33.2274L27.1739 33.2272C27.3673 32.592 27.1814 31.9073 26.6893 31.4404L26.6893 31.4404L25.7718 30.5706C25.7538 30.5535 25.7403 30.5347 25.7299 30.5122C25.7298 30.5122 25.7298 30.5122 25.7298 30.5121L24.8299 28.5638C24.6612 28.1975 24.3641 27.8912 23.9939 27.6997L23.9938 27.6996L21.9693 26.6553L21.9693 26.6553C20.4715 25.8828 19.9014 24.093 20.6921 22.667L20.6921 22.667L21.7041 20.8412C21.7041 20.8412 21.7041 20.8411 21.7042 20.841C21.7369 20.783 21.7974 20.7441 21.8695 20.7385C21.8695 20.7385 21.8696 20.7384 21.8696 20.7384L24.7537 20.5187C24.76 20.5184 24.7656 20.5182 24.7708 20.5182C24.8201 20.5182 24.8682 20.5352 24.9042 20.5649L24.9045 20.5652L25.8652 21.3481L25.8653 21.3482C26.481 21.8493 27.3634 21.9255 28.0612 21.5403L28.6786 21.2006L28.679 21.2004C28.7322 21.1707 28.7968 21.1654 28.8568 21.1865C28.8568 21.1865 28.8569 21.1866 28.8569 21.1866L30.6667 21.8318L30.6669 21.8319C30.7115 21.8477 30.7468 21.876 30.77 21.913L30.7702 21.9133Z" fill="#82868C" stroke="#82868C" stroke-width="0.15"/>
</svg>
